<svg xmlns="http://www.w3.org/2000/svg" viewBox="0 0 792 187.829">
  <path d="M122.83 101.192c0-30.804-20.984-48.323-57.563-48.323H0v134.95h44.667v-35.04h16.75l16.17 35.04h50.44l-26.567-43.89c13.862-8.47 21.37-23.1 21.37-42.74zm-57.563 17.714h-20.6V86.75h20.6c9.625 0 15.208 5.778 15.208 15.788 0 10.396-5.583 16.363-15.208 16.363v.01zm118.977 35.038v-16.75h63.148V103.31h-63.148V86.753h69.5V52.87H139.58v134.958h115.897v-33.884m75.047-119.867c11.745 0 32.73 8.277 46.4 15.787l16.17-33.885C377.886 6.35 355.744 0 334.374 0c-35.037 0-57.755 16.942-57.756 43.894 0 47.36 69.883 35.808 69.883 53.33 0 4.81-4.23 6.93-10.78 6.93-13.66 0-37.54-9.433-51.4-20.985l-16.55 33.49c17.905 13.67 44.09 21.562 67.58 21.562 30.417 0 56.79-13.28 56.79-43.315 0-48.903-69.89-38.315-69.89-55.253 0-4.047 3.276-5.587 8.28-5.587zm136.498-32.15H403.68v134.957h44.664v-35.038h18.674c35.038 0 55.253-18.87 55.253-51.595.01-30.8-20.21-48.32-55.24-48.32zm-2.31 66.033h-16.364V35.808h16.363c9.63 0 15.21 5.777 15.21 15.788 0 10.397-5.58 16.363-15.21 16.364zm115.703 18.292h63.148V52.366h-63.148V35.81h69.504V1.926H535.75v134.96h115.9V103h-71.233m155.175-3.272c-16.17 0-27.916-13.092-27.916-31.192 0-17.9 11.745-30.8 27.916-30.8 10.396 0 22.525 7.124 30.61 18.097L792 25.226C778.137 10.204 755.61.58 735.01.58c-42.355 0-73.156 28.875-73.156 68.538 0 40.234 30.03 69.693 71.424 69.693 20.792 0 43.7-10.58 58.72-26.95L766.2 84.33c-8.856 9.432-20.986 15.4-30.612 15.4zm-463.364 54.216H792v33.884H272.226v-33.884z"/>
</svg>